
<?xml version="1.0"?>
<svg xmlns="http://www.w3.org/2000/svg" id="Layer_1" data-name="Layer 1" viewBox="0 0 512 512" width="512" height="512"><title>Calendar</title><path d="M459.45,210.29V409a40,40,0,0,1-40,40H92.55a40,40,0,0,1-40-40V210.29Z" style="fill:#fedb41"/><path d="M374.65,98.71h44.8a40,40,0,0,1,40,40v71.58H52.55V138.71a40,40,0,0,1,40-40h282.1Z" style="fill:#00acea"/><path d="M329.72,302.58c6.19,31.89-13.51,74.47-71.85,98.11a4.936,4.936,0,0,1-3.75,0c-58.15-23.08-78.03-65.85-71.84-98.11,4.12-21.76,19.32-35.64,39.01-35.64,11.07,0,22.89,4.5,34.71,13.32,11.63-8.44,23.63-12.95,34.51-12.95C310.21,267.31,325.4,281.19,329.72,302.58Z" style="fill:#d7443e"/><path d="M141.82,142.41a8,8,0,0,1-8-8V63a8,8,0,0,1,16,0v71.41A8,8,0,0,1,141.82,142.41Z" style="fill:#fedb41"/><path d="M374.65,142.41a8,8,0,0,1-8-8V63a8,8,0,0,1,16,0v71.41A8,8,0,0,1,374.65,142.41Z" style="fill:#fedb41"/></svg>
