
<svg height="512pt" viewBox="0 -46 512.00006 512" width="512pt" xmlns="http://www.w3.org/2000/svg"><path d="m508.285156 330.972656c-105.046875 88.105469-175.824218 66.023438-215.046875 35.429688-7.945312 15.882812-17.542969 32.496094-29.015625 49.84375-3.488281 5.265625-11.296875 5.09375-14.542968-.324219-6.625-11.023437-17.042969-29.441406-27.558594-52.222656-38.472656 31.910156-110.296875 57.949219-218.40625-32.726563-4.34375-3.644531-4.058594-10.417968.589844-13.652344 3.722656-2.601562 8.527343-5.800781 14.246093-9.332031 43.089844-26.617187 138.203125-71.429687 214.203125-7.914062h46.492188c76-63.527344 171.113281-18.714844 214.203125 7.914062 5.71875 3.53125 10.523437 6.730469 14.246093 9.332031 4.648438 3.234376 4.933594 10.007813.589844 13.652344zm0 0" fill="#1ab975"/><path d="m493.449219 307.988281c-96.910157 74.085938-162.855469 52.675781-200.210938 23.542969-7.945312 15.882812-17.542969 32.496094-29.015625 49.84375-3.488281 5.265625-11.296875 5.09375-14.542968-.324219-6.625-11.023437-17.042969-29.441406-27.558594-52.222656-36.6875 30.433594-103.691406 55.519531-203.570313-20.839844 43.089844-26.617187 138.203125-71.429687 214.203125-7.914062h46.492188c76-63.527344 171.113281-18.714844 214.203125 7.914062zm0 0" fill="#169b62"/><path d="m252.25 318.589844s-44.710938 34.699218-105.988281 17.179687c-43.441407-12.40625-95.21875-51.089843-145.273438-147.015625-2.800781-5.359375.644531-11.878906 6.644531-12.542968 14.519532-1.640626 40.558594-3.699219 70.398438-2.117188 74.550781 3.996094 172.800781 30.855469 174.21875 144.496094zm0 0" fill="#e25ca5"/><path d="m252.25 318.589844s-44.710938 34.699218-105.988281 17.179687c-32.144531-26.425781-61.425781-74.527343-68.230469-161.675781 74.550781 3.996094 172.800781 30.855469 174.21875 144.496094zm0 0" fill="#dd3f95"/><path d="m511.011719 188.753906c-44.75 85.769532-90.875 125.765625-131.199219 142.15625-68.378906 27.789063-120.0625-12.320312-120.0625-12.320312 1.394531-112.527344 97.757812-139.960938 172.03125-144.367188 30.75-1.816406 57.714844.316406 72.585938 1.988282 6 .664062 9.445312 7.183593 6.644531 12.542968zm0 0" fill="#e25ca5"/><path d="m245.675781 323.078125s-17.117187 2.175781-39.828125-3.644531c-47.59375-12.214844-119.765625-59.597656-110.519531-235.90625.320313-6.023438 6.585937-9.890625 12.101563-7.417969 12.902343 5.777344 35.292968 16.707031 59.269531 32.398437 62.726562 41.03125 136.269531 114.722657 78.976562 214.570313zm0 0" fill="#e25ca5"/><path d="m431.78125 174.222656c-3.464844 79.398438-25.390625 127.554688-51.96875 156.6875-68.378906 27.789063-120.0625-12.320312-120.0625-12.320312 1.394531-112.527344 97.757812-139.960938 172.03125-144.367188zm0 0" fill="#dd3f95"/><path d="m314.074219 317.128906c-26.53125 8.65625-47.75 5.949219-47.75 5.949219-55.011719-95.863281 10.609375-167.632813 71.441406-209.519531 26.734375-18.417969 52.5625-31.066406 66.804687-37.449219 5.515626-2.472656 11.78125 1.394531 12.101563 7.417969 8.738281 166.765625-55.351563 218.183594-102.597656 233.601562zm0 0" fill="#e25ca5"/><path d="m314.074219 317.128906c-26.53125 8.65625-47.75 5.949219-47.75 5.949219-55.011719-95.863281 10.609375-167.632813 71.441406-209.519531 20.289063 61.667968 27.792969 139.808594-23.691406 203.570312zm0 0" fill="#dd3f95"/><path d="m245.675781 323.078125s-17.117187 2.175781-39.828125-3.644531c-30.21875-33.191406-71.800781-102.183594-39.148437-210.925782 62.726562 41.03125 136.269531 114.722657 78.976562 214.570313zm0 0" fill="#dd3f95"/><path d="m274.40625 313.824219c-2.027344 2.152343-4.152344 4.277343-6.347656 6.390625-7.292969 7.007812-18.886719 6.753906-26.015625-.421875-33.5-33.625-111.027344-139.28125 6.117187-315.941407 3.402344-5.136718 10.945313-5.136718 14.347656 0 3.183594 4.796876 7.207032 11.222657 11.65625 19.019532 33.601563 58.667968 91.902344 194.558594.242188 290.953125zm0 0" fill="#e779b5"/><path d="m274.40625 313.824219c-34.140625-37.578125-94.277344-134.816407-.242188-290.953125 33.601563 58.667968 91.902344 194.558594.242188 290.953125zm0 0" fill="#efa4cd"/></svg>