<svg width="354" height="433" viewBox="0 0 354 433" fill="none" xmlns="http://www.w3.org/2000/svg">
<g filter="url(#filter0_d)">
<path d="M175.035 2.03839C173.083 0.760342 170.803 0.0733745 168.469 0.0600724C166.135 0.0467703 163.848 0.707702 161.881 1.96342C140.724 15.4828 127.066 28.9856 113.458 42.4401C57.5047 97.7592 53.533 160.868 67.5133 225.099L11.0181 280.954C6.19727 285.728 2.79858 291.748 1.20159 298.342C-0.395405 304.937 -0.127822 311.845 1.97445 318.296L28.1404 398.354C29.1128 401.317 30.8261 403.982 33.1178 406.096C35.4096 408.211 38.2036 409.705 41.2348 410.436C44.266 411.167 47.4338 411.112 50.4376 410.275C53.4414 409.438 56.1814 407.847 58.3977 405.654L114.66 350.029L114.522 374.257C114.486 380.727 117.021 386.946 121.569 391.546C126.118 396.147 132.308 398.753 138.777 398.79L193.664 399.109C196.868 399.127 200.045 398.514 203.013 397.305C205.98 396.096 208.68 394.314 210.959 392.061C213.238 389.808 215.05 387.128 216.293 384.175C217.536 381.221 218.185 378.052 218.203 374.848L218.341 350.62L274.003 406.92C276.194 409.137 278.915 410.758 281.908 411.629C284.901 412.5 288.067 412.591 291.106 411.895C294.144 411.199 296.954 409.738 299.27 407.652C301.585 405.565 303.329 402.921 304.336 399.971L331.375 320.286C333.561 313.856 333.912 306.944 332.388 300.327C330.864 293.709 327.525 287.647 322.746 282.821L266.779 226.212C281.317 162.198 278.071 98.8271 223.026 43.1506C209.572 29.4341 196.064 15.7711 175.035 2.03839ZM189.22 147.656C184.931 151.897 179.48 154.771 173.558 155.914C167.635 157.057 161.507 156.418 155.948 154.078C150.388 151.738 145.648 147.802 142.325 142.768C139.003 137.733 137.248 131.827 137.282 125.795C137.316 119.764 139.139 113.878 142.518 108.882C145.898 103.886 150.683 100.004 156.269 97.7274C161.854 95.451 167.99 94.882 173.899 96.0924C179.808 97.3028 185.225 100.238 189.466 104.528C195.152 110.279 198.321 118.055 198.275 126.143C198.229 134.231 194.972 141.97 189.22 147.656Z" fill="white"/>
</g>
<defs>
<filter id="filter0_d" x="0.17337" y="0.0598755" width="353.147" height="432.297" filterUnits="userSpaceOnUse" color-interpolation-filters="sRGB">
<feFlood flood-opacity="0" result="BackgroundImageFix"/>
<feColorMatrix in="SourceAlpha" type="matrix" values="0 0 0 0 0 0 0 0 0 0 0 0 0 0 0 0 0 0 127 0"/>
<feOffset dx="20" dy="20"/>
<feColorMatrix type="matrix" values="0 0 0 0 1 0 0 0 0 0.0784314 0 0 0 0 0.0784314 0 0 0 0.25 0"/>
<feBlend mode="normal" in2="BackgroundImageFix" result="effect1_dropShadow"/>
<feBlend mode="normal" in="SourceGraphic" in2="effect1_dropShadow" result="shape"/>
</filter>
</defs>
</svg>
